<svg xmlns="http://www.w3.org/2000/svg" viewBox="0 0 316.87 238.53"><defs><style>.cls-1{fill:#293475;}</style></defs><title>Asset 323</title><g id="Layer_2" data-name="Layer 2"><g id="Layer_1-2" data-name="Layer 1"><path class="cls-1" d="M316.87,218.88c0,7.31-1.26,12.6-4.29,15.37-2.77,3-7.55,4.28-14.35,4.28H18.64c-5,0-9.32-1.26-12.59-4.28-4-3.53-6-8.56-6-15.37V18.14A17,17,0,0,1,5.79,5.54C9.82,1.76,14.11,0,18.64,0H298.23c6.29,0,11.08,1.76,14.1,5a19.23,19.23,0,0,1,4.54,13.1ZM101.51,119.14,18.64,37.28V203.52ZM285.13,17.63H32l106,106c9.32,9.32,16.12,14.11,20.4,14.11,4.54,0,11.34-4.79,20.66-14.11Zm-.5,201-83.38-83.12-13.6,13.35c-7.81,7.81-17.63,11.84-29.22,11.84a39.72,39.72,0,0,1-29-11.84l-13.6-13.35L32.49,218.63Zm13.85-15.11V37.28l-82.87,81.86Z"/></g></g></svg>